<svg width="288" height="62" viewBox="0 0 288 62" fill="none" xmlns="http://www.w3.org/2000/svg">
<g clip-path="url(#clip0_1_92)">
<g clip-path="url(#clip1_1_92)">
<path d="M13.3383 41.1905C19.8412 41.1905 22.3778 37.2195 22.3778 30.4254C22.3778 23.6328 19.4114 18.8966 13.5288 18.8966H6.9359V41.1905H13.3383ZM0 12.9653H14.3901C23.5241 12.9653 29.4067 20.3325 29.4067 30.4254C29.4067 35.9742 27.5409 40.8552 23.954 43.8689C21.4189 45.9725 18.1186 47.1692 13.8154 47.1692H0V12.9653ZM49.2159 34.9239C49.2159 30.1388 46.9689 26.8858 42.9995 26.8858C38.9813 26.8858 36.78 30.1388 36.78 34.9239C36.78 39.7073 38.9813 42.9115 42.9995 42.9115C46.9689 42.9115 49.2159 39.7073 49.2159 34.9239ZM30.1811 34.9239C30.1811 27.6038 35.3944 21.959 42.9995 21.959C50.6031 21.959 55.8164 27.6038 55.8164 34.9239C55.8164 42.2408 50.6031 47.8871 42.9995 47.8871C35.3929 47.8871 30.1795 42.2424 30.1795 34.9239M56.8911 34.9239C56.8911 27.6038 61.6745 21.959 69.1349 21.959C75.4976 21.959 79.4183 25.6435 80.2796 30.9529H73.9183C73.4885 28.8004 71.8147 27.1725 69.423 27.1725C65.5007 27.1725 63.4931 30.1877 63.4931 34.9239C63.4931 39.564 65.3574 42.6737 69.3269 42.6737C71.9579 42.6737 73.8238 41.2866 74.2537 38.5123H80.5189C80.089 43.7256 76.022 47.8871 69.4703 47.8871C61.7234 47.8871 56.8911 42.2424 56.8911 34.9239ZM97.4546 47.1706V44.3002H97.3114C95.6376 46.5487 93.7245 47.8399 90.2809 47.8399C84.8283 47.8399 81.7673 44.3491 81.7673 38.9894V22.6283H88.223V37.8888C88.223 40.7591 89.5157 42.3384 92.2885 42.3384C95.3495 42.3384 97.2153 40.0427 97.2153 36.7897V22.6283H103.72V47.1706H97.4546ZM135.41 47.1706H141.913V22.6283H135.41V47.1706ZM135.41 19.1984H141.913V13.1161H135.41V19.1984ZM161.781 33.8217C161.781 30.2349 159.868 27.1739 155.947 27.1739C152.646 27.1739 150.446 29.7562 150.446 33.8705C150.446 38.032 152.646 40.4726 155.995 40.4726C160.108 40.4726 161.781 37.4588 161.781 33.8232M144.611 47.8871H151.065C151.593 49.4176 152.978 50.6142 155.992 50.6142C159.675 50.6142 161.445 48.8444 161.445 45.4954V42.8156H161.301C159.865 44.4421 158.002 45.6859 154.891 45.6859C149.44 45.6859 144.084 41.3811 144.084 33.9665C144.084 26.6465 148.483 21.959 154.701 21.959C157.762 21.959 160.009 23.1541 161.492 25.2121H161.588V22.6283H167.853V45.3033C167.853 48.7483 166.752 51.0913 164.936 52.7667C162.878 54.6797 159.722 55.541 156.089 55.541C149.392 55.541 145.279 52.6706 144.609 47.8871M177.005 25.9773H177.148C178.823 23.3463 181.071 21.959 184.419 21.959C189.489 21.959 192.884 25.7852 192.884 31.1433V47.1692H186.379V32.1007C186.379 29.4696 184.848 27.6038 182.122 27.6038C179.253 27.6038 177.148 29.8995 177.148 33.2485V47.1692H170.644V22.6283H177.005V25.9773ZM120.587 26.5505C115.517 25.4529 113.125 24.6389 113.125 21.8631C113.125 19.424 115.564 17.8447 119.295 17.8447C122.7 17.8447 125.302 19.4423 125.836 22.6283H132.506C131.828 15.9865 126.899 12.3433 119.343 12.3433C111.74 12.3433 106.238 15.8356 106.238 22.581C106.238 29.709 111.834 31.3355 117.956 32.7226C123.169 33.9193 126.422 34.5885 126.422 37.936C126.422 41.0945 123.313 42.3384 119.775 42.3384C114.897 42.3384 112.553 40.7118 112.073 36.5976H105.282C105.522 43.8216 110.782 47.9344 120.061 47.9344C127.761 47.9344 133.356 44.0609 133.356 37.1236C133.356 29.7562 127.617 28.0825 120.587 26.5505Z" fill="#050038"/>
</g>
</g>
<defs>
<clipPath id="clip0_1_92">
<rect width="287.953" height="61.7031" fill="white"/>
</clipPath>
<clipPath id="clip1_1_92">
<rect width="287.938" height="61.7009" fill="white" transform="translate(0 0.0012209)"/>
</clipPath>
</defs>
</svg>
