<svg width="288" height="62" viewBox="0 0 288 62" fill="none" xmlns="http://www.w3.org/2000/svg">
<g clip-path="url(#clip0_1_105)">
<g clip-path="url(#clip1_1_105)">
<path d="M4.20326 16.9957V20.7381H0V25.6181H4.20326V45.2356C4.20326 46.724 5.72596 47.9165 7.64065 47.9165C9.55532 47.9165 11.1142 46.7331 11.1142 45.2447V25.6271H16.7014V20.7472H11.1142V16.9957C11.1142 12.4817 14.6119 11.6491 19.4001 12.7257V7.8457C12.658 6.32376 4.20326 7.03136 4.20326 16.9957ZM25.7321 25.6271H25.5874V20.7472H19.9941V45.2508C19.9941 46.7393 21.5017 47.9318 23.4315 47.9318C25.3612 47.9318 26.896 46.7393 26.896 45.2508V32.9136C26.896 27.0942 30.644 25.615 35.1819 25.615V20.125C31.0781 20.1036 27.2338 21.4731 25.7321 25.6271ZM74.0365 20.1372C67.3727 20.1372 61.9755 23.4769 61.9755 30.0405C61.9755 33.5358 63.5102 36.1161 65.9556 37.7662C65.7747 37.8851 65.5998 38.0071 65.4279 38.1352C62.3976 40.4013 62.0719 44.3084 64.8489 46.4404C63.4891 47.6603 61.5623 49.8441 61.5623 52.888C61.5623 57.7192 66.0249 60.8394 74.0334 60.8394C82.0419 60.8394 88.1569 57.0421 88.1569 51.1953C88.1569 45.3484 84.1405 43.0518 76.8135 43.0518H72.0222C68.6663 43.0518 68.9527 40.7064 70.0593 39.6968C70.1166 39.645 70.177 39.5961 70.2433 39.5443C71.4904 39.8094 72.7621 39.9383 74.0365 39.9286C80.7032 39.9286 86.0975 36.5736 86.0975 30.0313C86.1125 28.6767 85.8487 27.3336 85.3225 26.0877C86.3431 25.8054 87.3944 25.6527 88.4523 25.6333V20.7533C85.4884 20.7533 83.5767 20.9546 81.5505 21.9519C79.4971 20.7289 76.8829 20.1219 74.0365 20.1219V20.1372ZM70.3729 47.941H76.8075C79.4488 47.941 81.2489 48.7706 81.2489 51.1953C81.2489 54.4527 78.4869 55.9533 74.0123 55.9533C67.1436 55.938 67.5536 50.2284 70.3729 47.9257V47.941ZM74.0365 35.0486C71.1871 35.0486 68.8714 33.9293 68.8714 30.0375C68.8714 26.1457 71.1871 25.0264 74.0365 25.0264C76.8859 25.0264 79.2045 26.1426 79.2045 30.0375C79.2045 33.9323 76.8918 35.0486 74.0365 35.0486ZM47.7224 20.1219C40.2324 20.1219 35.6613 24.8098 35.6613 34.0238C35.6613 43.2379 40.2385 47.9257 47.7224 47.9257C55.2062 47.9257 59.7834 43.2379 59.7834 34.0238C59.7834 24.8098 55.2152 20.1219 47.7224 20.1219ZM47.7224 43.0365C44.8699 43.0365 42.5572 41.8653 42.5572 34.0238C42.5572 26.1823 44.885 25.0172 47.7224 25.0172C50.5597 25.0172 52.8875 26.1853 52.8875 34.0238C52.8875 41.8623 50.5748 43.0365 47.7224 43.0365Z" fill="#050038"/>
</g>
</g>
<defs>
<clipPath id="clip0_1_105">
<rect width="287.953" height="61.7031" fill="white"/>
</clipPath>
<clipPath id="clip1_1_105">
<rect width="287.938" height="61.7009" fill="white" transform="translate(0 0.0012209)"/>
</clipPath>
</defs>
</svg>
