<svg width="186" height="32" viewBox="0 0 186 32" fill="none" xmlns="http://www.w3.org/2000/svg">
<g clip-path="url(#clip0_1_332)">
<path d="M19.1839 15.667C19.1839 18.5021 21.493 20.8112 24.3281 20.8112C25.5588 20.811 26.7485 20.3683 27.6799 19.5637L29.6266 22.9407C28.0894 24.0657 26.2331 24.6705 24.3281 24.667C19.3572 24.667 15.3281 20.6379 15.3281 15.667C15.3281 10.696 19.3572 6.66699 24.3281 6.66699C24.9193 6.66691 25.5091 6.72494 26.089 6.84025L24.3281 10.5228C21.493 10.5228 19.1839 12.8318 19.1839 15.667ZM30.9801 11.9818H28.2899C28.3624 11.5596 28.6238 11.3234 29.153 11.0556L29.6476 10.8036C30.5328 10.35 31.0053 9.83651 31.0053 8.99857C31.0053 8.4725 30.8006 8.05668 30.3942 7.75741C29.9878 7.45815 29.509 7.31009 28.9483 7.31009C28.5145 7.30499 28.0886 7.42651 27.7229 7.65976C27.3543 7.88657 27.0802 8.17953 26.9101 8.54495L27.6882 9.32619C27.9906 8.71506 28.4285 8.41579 29.005 8.41579C29.4933 8.41579 29.7925 8.66781 29.7925 9.01747C29.7925 9.31044 29.6476 9.553 29.0869 9.83651L28.7687 9.99087C28.0788 10.3405 27.6 10.7406 27.3228 11.1942C27.0456 11.6479 26.9101 12.218 26.9101 12.9079V13.0969H30.9801V11.9818ZM30.6229 14.3822H26.1685L23.9414 18.238H28.3957L30.6229 22.0969L32.85 18.238L30.6229 14.3822Z" fill="#050038"/>
</g>
<g clip-path="url(#clip1_1_332)">
<path d="M47.683 13.2866C47.6968 12.7452 47.8046 12.2103 48.0014 11.7057C48.1857 11.2407 48.4698 10.8218 48.8335 10.4783C49.2225 10.1235 49.6807 9.85307 50.1793 9.68395C50.7829 9.48582 51.4165 9.39045 52.0519 9.40289C52.7591 9.37985 53.465 9.49043 54.1322 9.72726C54.6105 9.90384 55.0515 10.1684 55.4324 10.5073C55.7239 10.767 55.9552 11.0871 56.1102 11.4454C56.2226 11.7067 56.2968 11.9827 56.3309 12.2656C56.3369 12.3176 56.3301 12.3703 56.3113 12.4192C56.2924 12.468 56.262 12.5116 56.2226 12.5462C56.1453 12.6165 56.0443 12.6551 55.9397 12.6544H54.7708C54.6795 12.6586 54.5896 12.6306 54.5169 12.5752C54.4606 12.5299 54.4144 12.4732 54.3815 12.4089C54.3325 12.3232 54.2818 12.2386 54.2294 12.155C54.1223 11.9998 53.9903 11.8634 53.8387 11.7514C53.6254 11.5928 53.3898 11.4666 53.1397 11.3768C52.7916 11.2558 52.4243 11.1996 52.056 11.2109C51.4253 11.1794 50.8061 11.3882 50.3231 11.7951C50.1055 11.9941 49.9315 12.236 49.8122 12.5057C49.693 12.7754 49.6309 13.0668 49.6301 13.3617C49.6094 13.7538 49.5997 14.1463 49.6011 14.5389C49.6011 14.9568 49.6011 15.3499 49.6301 15.7162C49.6573 16.5151 49.8905 17.0952 50.3231 17.4551C50.8165 17.8356 51.4296 18.0274 52.0519 17.996C52.3826 17.9985 52.7123 17.9594 53.0333 17.8794C53.3143 17.8108 53.5774 17.6831 53.8055 17.5053C54.029 17.3224 54.2027 17.086 54.3109 16.8188C54.44 16.487 54.5013 16.1336 54.492 15.7784V15.6558H52.7301C52.6787 15.6566 52.6277 15.6467 52.5805 15.6266C52.5332 15.6065 52.4906 15.5768 52.4555 15.5392C52.4188 15.5041 52.3896 15.4618 52.3699 15.415C52.3502 15.3681 52.3403 15.3178 52.3408 15.2669V14.2408C52.3418 14.1377 52.3831 14.0391 52.4559 13.9661C52.5286 13.893 52.627 13.8512 52.7301 13.8496H56.0581C56.1613 13.8512 56.2598 13.893 56.3325 13.9662C56.4053 14.0394 56.4465 14.1381 56.4475 14.2413V15.8281C56.4535 16.3723 56.3604 16.9129 56.1729 17.4237C55.9926 17.8968 55.7082 18.3233 55.3407 18.6715C54.9473 19.0431 54.4792 19.3267 53.9677 19.5036C52.7223 19.8934 51.3874 19.8934 50.142 19.5036C49.6452 19.3393 49.1896 19.0697 48.8063 18.7134C48.4469 18.3615 48.1685 17.9353 47.9908 17.4647C47.7975 16.9544 47.6921 16.4151 47.6788 15.8696C47.6788 15.6867 47.6622 15.4849 47.6581 15.2642C47.6539 15.0439 47.6581 14.8149 47.6581 14.5841V13.9059C47.6581 13.6833 47.6705 13.4898 47.6788 13.2986M60.8952 13.7358C60.6507 13.729 60.4073 13.7708 60.1791 13.8589C59.9948 13.9317 59.8263 14.0386 59.6819 14.1749C59.5514 14.2987 59.4457 14.4462 59.3701 14.6094C59.3034 14.7534 59.2579 14.9063 59.2351 15.0633H62.4967C62.4759 14.9088 62.4395 14.7567 62.3884 14.6094C62.3344 14.4473 62.2456 14.299 62.1281 14.1749C61.9945 14.0363 61.8319 13.9284 61.6522 13.8589C61.4102 13.7685 61.1528 13.7267 60.8947 13.7358H60.8952ZM57.3584 15.9014C57.3547 15.3835 57.4376 14.8693 57.604 14.3786C57.7551 13.92 57.9956 13.4958 58.3112 13.1304C58.6219 12.7778 59.0031 12.4945 59.4305 12.2987C59.8883 12.0941 60.3849 11.9911 60.8864 11.9969C61.3872 11.9906 61.8836 12.0912 62.3424 12.2923C62.7724 12.4796 63.159 12.7536 63.4782 13.0972C63.791 13.4362 64.0342 13.8334 64.1938 14.2662C64.3633 14.7163 64.4494 15.1937 64.4475 15.6747V16.3239C64.4459 16.4271 64.4042 16.5256 64.3312 16.5985C64.2582 16.6714 64.1595 16.7131 64.0564 16.7146H59.2346C59.23 16.9178 59.2761 17.1192 59.3701 17.2993C59.4623 17.4629 59.5885 17.6048 59.7406 17.7154C59.9003 17.8338 60.081 17.9218 60.2726 17.9753C60.476 18.0318 60.686 18.0605 60.897 18.0605C61.1504 18.0679 61.4039 18.0361 61.6481 17.967C61.8186 17.9154 61.9797 17.8352 62.124 17.7297C62.2051 17.6675 62.2921 17.614 62.3843 17.5698C62.4718 17.5371 62.5654 17.5219 62.6589 17.526H63.8132C63.9192 17.5274 64.0205 17.5693 64.0961 17.6426C64.1345 17.6766 64.1642 17.7192 64.1831 17.7669C64.2019 17.8146 64.2092 17.8661 64.2043 17.9172C64.1719 18.1058 64.0951 18.284 63.9799 18.4369C63.8109 18.6811 63.5993 18.8922 63.3556 19.0613C63.0358 19.2838 62.6855 19.459 62.3156 19.5815C61.8567 19.731 61.3755 19.8011 60.8928 19.7888C60.3937 19.7946 59.8983 19.6993 59.4368 19.5087C59.0066 19.3306 58.6214 19.0591 58.309 18.7139C57.9938 18.3529 57.7536 17.9328 57.6021 17.4781C57.4328 16.9685 57.3498 16.4342 57.3566 15.8972M67.9056 16.9413C67.8918 17.2012 67.9769 17.456 68.1448 17.655C68.3028 17.8338 68.5981 17.9232 69.0331 17.9232H69.913C70.0161 17.9244 70.1145 17.9657 70.1875 18.0383C70.2604 18.1109 70.3022 18.2091 70.3039 18.3121V19.2649C70.3022 19.3682 70.2605 19.4668 70.1875 19.5398C70.1145 19.6128 70.0159 19.6546 69.9126 19.6561H68.8437C67.9379 19.6561 67.2449 19.4368 66.7633 18.9986C66.2823 18.5609 66.0396 17.8891 66.0354 16.9851V13.8796H65.0742C65.0232 13.8802 64.9727 13.8702 64.9258 13.8501C64.8789 13.83 64.8367 13.8004 64.802 13.763C64.7642 13.7285 64.7342 13.6863 64.7141 13.6392C64.694 13.5922 64.6842 13.5414 64.6854 13.4903V12.536C64.6847 12.485 64.6949 12.4345 64.715 12.3876C64.735 12.3407 64.7647 12.2985 64.802 12.2637C64.837 12.2268 64.8792 12.1974 64.9261 12.1773C64.9729 12.1573 65.0232 12.147 65.0742 12.1472H66.0289V9.79269C66.0304 9.68991 66.0719 9.59177 66.1446 9.51909C66.2174 9.44641 66.3154 9.40489 66.4182 9.40335H67.5163C67.6189 9.40489 67.7169 9.44634 67.7896 9.51893C67.8624 9.59151 67.9039 9.68953 67.9056 9.79223V12.1467H69.7777C69.8774 12.1525 69.9713 12.1959 70.0403 12.2681C70.1094 12.3404 70.1486 12.4361 70.15 12.536V13.4907C70.1483 13.5934 70.1069 13.6915 70.0343 13.7642C69.9618 13.8368 69.8637 13.8784 69.761 13.8801H67.8885L67.9056 16.9418V16.9413ZM77.3939 15.8866L75.8043 11.7703L74.2171 15.8866H77.3939ZM76.5991 9.54664C76.6623 9.54207 76.7259 9.5506 76.7857 9.57169C76.8454 9.59278 76.9002 9.62598 76.9466 9.6692C77.0396 9.77702 77.1101 9.90235 77.1544 10.0378L80.6911 19.1654C80.7008 19.1976 80.7053 19.2313 80.7053 19.2649C80.7039 19.3681 80.6624 19.4667 80.5894 19.5398C80.5165 19.6128 80.4179 19.6545 80.3147 19.6561H79.2743C79.202 19.6637 79.1289 19.6567 79.0592 19.6357C78.9896 19.6147 78.9249 19.5799 78.8689 19.5335C78.8008 19.465 78.7471 19.3835 78.7108 19.2939L78.0865 17.6924H73.5245L72.9002 19.2939C72.864 19.3835 72.8102 19.465 72.7421 19.5335C72.6861 19.58 72.6214 19.6148 72.5518 19.6359C72.4821 19.6569 72.409 19.6638 72.3367 19.6561H71.2962C71.1934 19.6538 71.0954 19.6118 71.0229 19.5389C70.9504 19.466 70.909 19.3678 70.9074 19.2649C70.9067 19.2311 70.9116 19.1975 70.9221 19.1654L74.4585 10.0378C74.5027 9.90235 74.5737 9.77702 74.6667 9.6692C74.7129 9.62574 74.7677 9.59239 74.8274 9.57129C74.8874 9.55019 74.9509 9.54179 75.0142 9.54664H76.5991ZM86.8819 16.305C86.9109 16.0367 86.9109 15.7661 86.8819 15.4978C86.8257 14.8739 86.632 14.4205 86.3055 14.1478C85.9695 13.8689 85.5439 13.7211 85.1074 13.7317C84.6722 13.7179 84.2476 13.8662 83.9155 14.1478C83.7484 14.3009 83.6131 14.4855 83.5178 14.6912C83.4224 14.8968 83.3687 15.1192 83.3597 15.3457C83.3377 15.5279 83.3279 15.7114 83.3307 15.8949C83.328 16.0788 83.3377 16.2622 83.3597 16.4442C83.3851 16.8957 83.5842 17.3201 83.9155 17.6283C84.243 17.9186 84.6693 18.0734 85.1074 18.0605C85.5439 18.0711 85.9695 17.9233 86.3055 17.6444C86.632 17.3721 86.8257 16.921 86.8819 16.2944V16.305ZM85.5443 19.7999C85.2748 19.8026 85.0061 19.7739 84.7435 19.7142C84.5289 19.6663 84.3196 19.5967 84.1191 19.5064C83.9597 19.4261 83.8097 19.3284 83.6717 19.2152C83.5639 19.1297 83.4631 19.0358 83.3703 18.9341V22.0087C83.3688 22.1119 83.327 22.2105 83.2539 22.2835C83.1809 22.3565 83.0825 22.3982 82.9793 22.3999H81.883C81.7798 22.3986 81.681 22.357 81.6079 22.2839C81.5348 22.2108 81.4933 22.1121 81.4919 22.0087V12.536C81.4944 12.4333 81.5364 12.3355 81.6093 12.263C81.6822 12.1905 81.7803 12.149 81.883 12.1472H82.9793C83.0821 12.1488 83.1803 12.1902 83.2532 12.2627C83.3262 12.3352 83.3681 12.4332 83.3703 12.536V12.8692C83.5834 12.6335 83.8405 12.442 84.1274 12.3057C84.3279 12.2152 84.5371 12.1454 84.7518 12.0974C85.0145 12.0378 85.2831 12.0092 85.5526 12.0121C86.0036 12.0056 86.4502 12.1015 86.8587 12.2927C87.2384 12.4724 87.5775 12.7282 87.8549 13.0438C88.134 13.364 88.3545 13.7308 88.5065 14.1275C88.6645 14.5357 88.7547 14.967 88.7724 15.4047C88.7829 15.548 88.787 15.7166 88.787 15.9101C88.787 16.1037 88.7871 16.2723 88.7724 16.4156C88.7546 16.8531 88.6647 17.2846 88.5065 17.6928C88.3545 18.0895 88.1339 18.4563 87.8549 18.7765C87.5774 19.0921 87.2385 19.3476 86.8587 19.5275C86.447 19.7171 85.9975 19.8103 85.5443 19.7999ZM95.0446 16.305C95.0737 16.0367 95.0737 15.7661 95.0446 15.4978C94.9866 14.8739 94.7953 14.4205 94.4664 14.1478C94.1307 13.8682 93.7049 13.7204 93.2683 13.7317C92.8332 13.7179 92.4085 13.8662 92.0764 14.1478C91.9093 14.3009 91.774 14.4855 91.6787 14.6912C91.5833 14.8968 91.5296 15.1192 91.5207 15.3457C91.4997 15.528 91.4901 15.7114 91.4916 15.8949C91.4898 16.0788 91.4995 16.2622 91.5207 16.4442C91.546 16.8957 91.7452 17.3201 92.0764 17.6283C92.4042 17.9189 92.8304 18.0735 93.2683 18.0605C93.7049 18.0718 94.1307 17.9239 94.4664 17.6444C94.7953 17.3721 94.9866 16.921 95.0446 16.2944V16.305ZM93.701 19.7893C93.4316 19.7921 93.1629 19.7635 92.9002 19.704C92.6856 19.6557 92.4764 19.5859 92.2758 19.4958C92.1146 19.4187 91.9626 19.3238 91.8226 19.2128C91.7141 19.1273 91.6124 19.0334 91.5188 18.9318V22.0087C91.519 22.06 91.5089 22.1108 91.4888 22.158C91.4688 22.2052 91.4394 22.2479 91.4024 22.2833C91.3673 22.3203 91.3249 22.3496 91.2781 22.3697C91.2313 22.3897 91.181 22.4 91.13 22.3999H90.0316C89.9286 22.3982 89.8302 22.3564 89.7576 22.2833C89.6849 22.2103 89.6437 22.1117 89.6427 22.0087V12.536C89.6439 12.4333 89.6852 12.335 89.7579 12.2624C89.8306 12.1897 89.9288 12.1483 90.0316 12.1472H91.13C91.2324 12.1496 91.3298 12.1914 91.4022 12.2638C91.4746 12.3362 91.5164 12.4337 91.5188 12.536V12.8692C91.6124 12.7678 91.7143 12.6733 91.8226 12.5881C91.9626 12.4775 92.1146 12.3821 92.2758 12.3052C92.4765 12.2152 92.6856 12.1456 92.9002 12.0974C93.1629 12.0379 93.4316 12.0093 93.701 12.0121C94.1527 12.0056 94.6001 12.1015 95.0095 12.2927C95.3887 12.4735 95.7276 12.729 96.0057 13.0438C96.284 13.3641 96.5038 13.7309 96.6549 14.1275C96.8134 14.5357 96.9032 14.967 96.9212 15.4047C96.9314 15.548 96.9356 15.7166 96.9356 15.9101C96.9356 16.1037 96.9356 16.2723 96.9212 16.4156C96.9034 16.8531 96.8134 17.2846 96.6549 17.6928C96.5037 18.0893 96.284 18.4562 96.0057 18.7765C95.7276 19.0913 95.3887 19.3468 95.0095 19.5275C94.6002 19.7189 94.1529 19.815 93.701 19.8086" fill="#050038"/>
</g>
<g clip-path="url(#clip2_1_332)">
<path d="M119.739 19.0433C119.676 19.1056 119.572 19.1834 119.427 19.2768C119.282 19.3703 119.092 19.4637 118.859 19.5572C118.625 19.6505 118.34 19.7308 118.003 19.7985C117.665 19.8658 117.278 19.8997 116.843 19.8997C116.002 19.8997 115.275 19.7646 114.663 19.4949C114.05 19.2252 113.544 18.8486 113.144 18.366C112.745 17.8833 112.451 17.3125 112.265 16.6531C112.078 15.994 111.984 15.27 111.984 14.481C111.984 13.6923 112.086 12.9628 112.288 12.2933C112.49 11.6237 112.794 11.0452 113.199 10.5571C113.604 10.0693 114.11 9.68779 114.717 9.41261C115.324 9.13775 116.038 9 116.858 9C117.263 9 117.629 9.03645 117.956 9.10898C118.283 9.18167 118.568 9.26739 118.812 9.36591C119.056 9.4647 119.259 9.56829 119.42 9.67733C119.58 9.78631 119.702 9.87736 119.785 9.94979C119.879 10.033 119.959 10.1316 120.027 10.2456C120.094 10.36 120.128 10.4846 120.128 10.6194C120.128 10.8271 120.05 11.0347 119.894 11.2422C119.739 11.45 119.567 11.642 119.381 11.8184C119.256 11.6938 119.116 11.5668 118.96 11.4369C118.804 11.3072 118.631 11.1931 118.439 11.0943C118.246 10.9958 118.028 10.9128 117.785 10.8452C117.541 10.7778 117.268 10.7439 116.967 10.7439C116.438 10.7439 115.994 10.8505 115.636 11.0632C115.278 11.2761 114.99 11.5536 114.772 11.8962C114.554 12.2388 114.398 12.6307 114.304 13.0718C114.211 13.5131 114.164 13.962 114.164 14.4187C114.164 14.9068 114.211 15.3739 114.304 15.8201C114.398 16.2664 114.559 16.661 114.787 17.0034C115.015 17.346 115.314 17.6212 115.682 17.8287C116.051 18.0365 116.51 18.1401 117.061 18.1401C117.351 18.1401 117.618 18.1039 117.862 18.0312C118.106 17.9586 118.322 17.8703 118.509 17.7663C118.695 17.6628 118.859 17.5539 118.999 17.4395C119.139 17.3253 119.256 17.2268 119.349 17.1436C119.412 17.2164 119.484 17.3047 119.567 17.4084C119.651 17.5131 119.729 17.6223 119.801 17.7354C119.874 17.8497 119.936 17.9638 119.988 18.0778C120.04 18.1922 120.066 18.2959 120.066 18.3892C120.066 18.5243 120.04 18.6384 119.988 18.7318C119.936 18.8253 119.853 18.9292 119.739 19.0433ZM127.763 17.8491C127.763 18.6741 127.883 19.2746 128.123 19.6506C127.935 19.7235 127.76 19.7758 127.599 19.8072C127.436 19.8385 127.267 19.8541 127.089 19.8541C126.714 19.8541 126.429 19.781 126.236 19.6348C126.042 19.4888 125.92 19.2799 125.868 19.0082C125.638 19.2487 125.335 19.4522 124.959 19.6194C124.583 19.7861 124.123 19.8699 123.581 19.8699C123.299 19.8699 123.017 19.8308 122.735 19.753C122.453 19.6745 122.197 19.5472 121.967 19.3705C121.737 19.1934 121.549 18.9565 121.403 18.6598C121.257 18.3631 121.184 18.0014 121.184 17.5747C121.184 17.0438 121.312 16.6116 121.568 16.2786C121.823 15.9454 122.145 15.6826 122.531 15.4899C122.917 15.2975 123.335 15.165 123.784 15.0919C124.233 15.019 124.646 14.9723 125.022 14.9512C125.147 14.9409 125.27 14.9355 125.39 14.9355H125.727V14.6504C125.727 14.249 125.619 13.9638 125.405 13.795C125.191 13.6261 124.844 13.5414 124.364 13.5414C123.915 13.5414 123.515 13.6145 123.165 13.7607C122.815 13.907 122.473 14.074 122.139 14.262C121.993 14.0845 121.875 13.8887 121.787 13.6745C121.698 13.4606 121.654 13.3013 121.654 13.1968C121.654 13.0506 121.735 12.9097 121.897 12.7738C122.058 12.6382 122.28 12.5153 122.562 12.4057C122.844 12.296 123.168 12.2074 123.534 12.1394C123.899 12.0716 124.285 12.0376 124.693 12.0376C125.257 12.0376 125.734 12.0951 126.126 12.2099C126.518 12.3249 126.836 12.5024 127.082 12.7425C127.327 12.9829 127.502 13.2829 127.606 13.6432C127.711 14.0035 127.763 14.424 127.763 14.9042V17.8491ZM125.758 16.032H125.539C125.465 16.032 125.392 16.0374 125.319 16.0477C125.058 16.0688 124.8 16.1 124.544 16.1416C124.288 16.1835 124.061 16.2566 123.863 16.361C123.664 16.4655 123.502 16.6013 123.377 16.7682C123.252 16.9354 123.189 17.1496 123.189 17.4106C123.189 17.703 123.272 17.9509 123.439 18.1546C123.606 18.3583 123.888 18.4601 124.285 18.4601C124.484 18.4601 124.672 18.4341 124.849 18.3816C125.027 18.3297 125.183 18.2617 125.319 18.1782C125.455 18.0946 125.562 18.0033 125.64 17.9039C125.719 17.8048 125.758 17.7135 125.758 17.6299V16.032H125.758ZM131.663 12.9461C131.83 12.7478 132.09 12.5466 132.444 12.3429C132.798 12.1393 133.246 12.0375 133.787 12.0375C134.172 12.0375 134.539 12.1028 134.888 12.2333C135.237 12.364 135.547 12.5755 135.817 12.8677C136.088 13.1602 136.304 13.5467 136.465 14.0269C136.627 14.5074 136.707 15.0975 136.707 15.797C136.707 16.6115 136.614 17.2827 136.426 17.8099C136.239 18.3375 135.997 18.7552 135.7 19.0632C135.404 19.3713 135.073 19.588 134.709 19.7132C134.344 19.8385 133.98 19.9013 133.616 19.9013C133.314 19.9013 133.051 19.8673 132.827 19.7995C132.603 19.7314 132.413 19.656 132.257 19.5723C132.101 19.4888 131.981 19.4054 131.898 19.3216C131.815 19.2382 131.763 19.1806 131.742 19.1492V23H129.611V12.2567C129.664 12.2465 129.727 12.236 129.801 12.2255C129.864 12.2152 129.938 12.2073 130.022 12.2019C130.106 12.1968 130.206 12.1942 130.322 12.1942C130.669 12.1942 130.963 12.2517 131.205 12.3665C131.447 12.4815 131.6 12.6746 131.663 12.9461ZM134.483 15.844C134.483 15.5307 134.457 15.2385 134.405 14.9668C134.353 14.6954 134.268 14.4604 134.148 14.2619C134.029 14.0636 133.868 13.9094 133.665 13.7997C133.463 13.6901 133.216 13.6354 132.926 13.6354C132.489 13.6354 132.186 13.719 132.014 13.8859C131.843 14.0531 131.757 14.236 131.757 14.4342V17.7552C131.84 17.8389 131.988 17.9379 132.201 18.0528C132.414 18.1678 132.66 18.225 132.941 18.225C133.471 18.225 133.86 18.0164 134.109 17.5985C134.358 17.1809 134.483 16.5959 134.483 15.844ZM138.352 18.5384C138.279 18.3297 138.232 18.1102 138.211 17.8804C138.19 17.6508 138.179 17.4211 138.179 17.1911V9.9227C138.252 9.91245 138.331 9.90194 138.414 9.89137C138.487 9.88112 138.566 9.87333 138.649 9.86789C138.733 9.86277 138.816 9.8601 138.9 9.8601C139.067 9.8601 139.234 9.87579 139.401 9.90706C139.568 9.93844 139.72 10.0011 139.856 10.095C139.991 10.189 140.101 10.3171 140.184 10.4788C140.268 10.6408 140.31 10.8524 140.31 11.1132V12.2254H142.503V13.8076H140.31V17.1481C140.31 17.8766 140.607 18.2407 141.203 18.2407C141.349 18.2407 141.487 18.2173 141.618 18.1702C141.748 18.1232 141.866 18.0711 141.97 18.0136C142.075 17.9562 142.166 17.8962 142.244 17.8335C142.323 17.7708 142.378 17.7239 142.409 17.6925C142.566 17.9224 142.685 18.1214 142.769 18.2893C142.853 18.4575 142.894 18.6152 142.894 18.7627C142.894 18.8998 142.84 19.0343 142.73 19.166C142.62 19.2977 142.466 19.4191 142.268 19.5297C142.069 19.6403 141.829 19.7299 141.547 19.7985C141.265 19.867 140.957 19.9013 140.623 19.9013C139.975 19.9013 139.472 19.7759 139.111 19.5254C138.751 19.2746 138.498 18.9456 138.352 18.5384ZM147.899 18.3347C148.16 18.3347 148.391 18.3061 148.59 18.2485C148.789 18.1913 148.967 18.1208 149.125 18.0372C149.282 17.9538 149.418 17.8623 149.533 17.7631C149.649 17.6639 149.753 17.5726 149.848 17.4889C149.974 17.6454 150.105 17.8467 150.241 18.0919C150.377 18.3375 150.445 18.5384 150.445 18.695C150.445 18.9248 150.315 19.1337 150.054 19.3216C149.834 19.4888 149.523 19.6324 149.122 19.7524C148.719 19.8724 148.247 19.9325 147.704 19.9325C147.213 19.9325 146.73 19.8699 146.255 19.7446C145.78 19.6193 145.357 19.3999 144.986 19.0866C144.615 18.7734 144.315 18.3531 144.085 17.8257C143.856 17.2983 143.741 16.6327 143.741 15.8284C143.741 15.1704 143.843 14.6041 144.046 14.1288C144.25 13.6537 144.521 13.2594 144.861 12.9461C145.2 12.6328 145.584 12.4032 146.012 12.2568C146.44 12.1107 146.879 12.0375 147.328 12.0375C147.913 12.0375 148.409 12.1291 148.816 12.3117C149.223 12.4945 149.555 12.74 149.811 13.0479C150.067 13.356 150.252 13.7085 150.367 14.1053C150.482 14.5023 150.539 14.9198 150.539 15.3584V15.5777C150.539 15.6615 150.537 15.75 150.531 15.844C150.526 15.9381 150.521 16.0296 150.516 16.1181C150.51 16.2071 150.502 16.2775 150.492 16.3297H145.871C145.913 16.9041 146.091 17.3818 146.405 17.7631C146.72 18.1444 147.217 18.3347 147.899 18.3347ZM148.612 15.1547C148.612 14.6535 148.515 14.2462 148.321 13.9329C148.127 13.6197 147.777 13.4629 147.273 13.4629C146.842 13.4629 146.499 13.6118 146.241 13.9094C145.984 14.2071 145.855 14.6222 145.855 15.1547H148.612ZM154.247 12.9856C154.309 12.8925 154.393 12.7889 154.497 12.6748C154.601 12.5608 154.73 12.4572 154.881 12.364C155.032 12.2708 155.199 12.1929 155.382 12.1308C155.565 12.0686 155.761 12.0375 155.97 12.0375C156.095 12.0375 156.228 12.048 156.369 12.0686C156.51 12.0894 156.641 12.1283 156.761 12.1851C156.881 12.2422 156.977 12.3197 157.051 12.4181C157.124 12.5166 157.16 12.6382 157.16 12.7831C157.16 13.011 157.103 13.2726 156.988 13.5681C156.873 13.8637 156.758 14.1158 156.643 14.3246C156.466 14.1784 156.288 14.0662 156.111 13.9878C155.933 13.9095 155.724 13.8703 155.484 13.8703C155.16 13.8703 154.889 13.9646 154.67 14.153C154.45 14.3415 154.341 14.5667 154.341 14.8285V19.8996H152.21V12.2567C152.262 12.2465 152.325 12.236 152.398 12.2255C152.461 12.2152 152.534 12.2073 152.617 12.2019C152.701 12.1968 152.8 12.1942 152.915 12.1942C153.249 12.1942 153.539 12.2589 153.784 12.3883C154.03 12.5174 154.184 12.7167 154.247 12.9856ZM160.304 12.9856C160.366 12.8925 160.45 12.7889 160.554 12.6748C160.659 12.5608 160.787 12.4572 160.938 12.364C161.089 12.2708 161.256 12.1929 161.439 12.1308C161.622 12.0686 161.818 12.0375 162.027 12.0375C162.152 12.0375 162.285 12.048 162.426 12.0686C162.567 12.0894 162.698 12.1283 162.818 12.1851C162.938 12.2422 163.034 12.3197 163.108 12.4181C163.181 12.5166 163.217 12.6382 163.217 12.7831C163.217 13.011 163.16 13.2726 163.045 13.5681C162.93 13.8637 162.815 14.1158 162.7 14.3246C162.523 14.1784 162.345 14.0662 162.168 13.9878C161.99 13.9095 161.781 13.8703 161.541 13.8703C161.217 13.8703 160.946 13.9646 160.727 14.153C160.507 14.3415 160.398 14.5667 160.398 14.8285V19.8996H158.267V12.2567C158.319 12.2465 158.382 12.236 158.455 12.2255C158.518 12.2152 158.591 12.2073 158.675 12.2019C158.758 12.1968 158.857 12.1942 158.972 12.1942C159.306 12.1942 159.596 12.2589 159.841 12.3883C160.087 12.5174 160.241 12.7167 160.304 12.9856ZM170.47 17.8491C170.47 18.6741 170.59 19.2746 170.83 19.6506C170.642 19.7235 170.468 19.7758 170.306 19.8072C170.144 19.8385 169.974 19.8541 169.797 19.8541C169.421 19.8541 169.136 19.781 168.943 19.6348C168.749 19.4888 168.627 19.2799 168.575 19.0082C168.345 19.2487 168.042 19.4522 167.666 19.6194C167.29 19.7861 166.831 19.8699 166.288 19.8699C166.006 19.8699 165.724 19.8308 165.442 19.753C165.16 19.6745 164.904 19.5472 164.674 19.3705C164.444 19.1934 164.256 18.9565 164.11 18.6598C163.964 18.3631 163.891 18.0014 163.891 17.5747C163.891 17.0438 164.019 16.6116 164.275 16.2786C164.531 15.9454 164.852 15.6826 165.238 15.4899C165.624 15.2975 166.042 15.165 166.491 15.0919C166.94 15.019 167.353 14.9723 167.729 14.9512C167.854 14.9409 167.977 14.9355 168.097 14.9355H168.434V14.6504C168.434 14.249 168.327 13.9638 168.113 13.795C167.898 13.6261 167.551 13.5414 167.071 13.5414C166.622 13.5414 166.222 13.6145 165.873 13.7607C165.523 13.907 165.181 14.074 164.847 14.262C164.7 14.0845 164.583 13.8887 164.494 13.6745C164.405 13.4606 164.361 13.3013 164.361 13.1968C164.361 13.0506 164.442 12.9097 164.604 12.7738C164.766 12.6382 164.988 12.5153 165.269 12.4057C165.552 12.296 165.875 12.2074 166.241 12.1394C166.606 12.0716 166.993 12.0376 167.4 12.0376C167.964 12.0376 168.442 12.0951 168.833 12.2099C169.225 12.3249 169.543 12.5024 169.789 12.7425C170.034 12.9829 170.209 13.2829 170.314 13.6432C170.418 14.0035 170.47 14.424 170.47 14.9042V17.8491ZM168.465 16.032H168.246C168.173 16.032 168.099 16.0374 168.027 16.0477C167.765 16.0688 167.507 16.1 167.251 16.1416C166.995 16.1835 166.768 16.2566 166.57 16.361C166.371 16.4655 166.209 16.6013 166.084 16.7682C165.959 16.9354 165.896 17.1496 165.896 17.4106C165.896 17.703 165.98 17.9509 166.147 18.1546C166.314 18.3583 166.596 18.4601 166.993 18.4601C167.191 18.4601 167.379 18.4341 167.557 18.3816C167.734 18.3297 167.891 18.2617 168.027 18.1782C168.162 18.0946 168.269 18.0033 168.348 17.9039C168.426 17.8048 168.465 17.7135 168.465 17.6299V16.032H168.465Z" fill="#050038"/>
</g>
<defs>
<clipPath id="clip0_1_332">
<rect width="19" height="32" fill="white" transform="translate(14.3281)"/>
</clipPath>
<clipPath id="clip1_1_332">
<rect width="50" height="32" fill="white" transform="translate(47.6562)"/>
</clipPath>
<clipPath id="clip2_1_332">
<rect width="59" height="32" fill="white" transform="translate(111.984)"/>
</clipPath>
</defs>
</svg>
