<svg width="288" height="62" viewBox="0 0 288 62" fill="none" xmlns="http://www.w3.org/2000/svg">
<g clip-path="url(#clip0_1_74)">
<g clip-path="url(#clip1_1_74)">
<path d="M0.431266 19.6055C1.27486 17.9546 3.39671 17.1367 5.14407 17.7167C6.237 18.0625 7.12357 18.9415 7.54107 20.0019C9.87406 25.5182 12.2175 31.0306 14.5496 36.5469C14.6136 36.4293 14.6748 36.3099 14.7282 36.1867C16.5205 31.9382 18.3271 27.6944 20.1279 23.4488C20.9907 21.4531 22.3854 19.6064 24.3363 18.5755C25.4207 17.9966 26.6339 17.6794 27.8549 17.5791C31.0143 17.2342 34.2271 18.7399 36.2 21.1894C38.0334 19.6178 40.1494 18.2813 42.5293 17.7425C43.8161 17.4454 45.1527 17.5027 46.4539 17.6622C48.0808 17.8733 49.6887 18.4342 50.9967 19.4431C51.6559 19.9388 52.2233 20.5465 52.7363 21.1904C54.9958 19.0065 58.0473 17.5639 61.2181 17.5314C63.2387 17.4884 65.2812 18.0253 66.9818 19.1277C68.9393 20.3736 70.3876 22.3913 70.914 24.6546C71.1719 25.6987 71.1835 26.7811 71.1806 27.8502C71.1806 32.4359 71.1797 37.0216 71.1815 41.6074C71.1691 42.2179 71.1462 42.837 70.9781 43.4284C70.6838 44.5604 69.932 45.6113 68.838 46.0813C67.2979 46.754 65.2678 46.5018 64.1481 45.1757C63.2463 44.1563 63.0189 42.7357 63.0581 41.4173C63.06 37.1506 63.0581 32.884 63.059 28.6173C63.0581 27.5101 62.6511 26.379 61.8352 25.6118C61.0891 24.8981 60.0486 24.5456 59.0255 24.5379C57.8887 24.5093 56.7126 24.8695 55.8757 25.6606C55.0712 26.4104 54.6395 27.5177 54.6471 28.6106C54.6471 33.0063 54.648 37.401 54.6462 41.7965C54.6404 42.9354 54.3777 44.12 53.6507 45.0238C53.0764 45.7642 52.2023 46.2486 51.2785 46.3813C50.2476 46.5313 49.1327 46.3804 48.2662 45.7737C47.4856 45.2397 46.9688 44.3856 46.7262 43.4828C46.4778 42.6258 46.5188 41.7249 46.5179 40.8431C46.5179 36.7666 46.517 32.691 46.5188 28.6144C46.5093 27.6008 46.1759 26.5681 45.489 25.8096C44.7189 24.944 43.54 24.5256 42.3984 24.537C41.2491 24.5284 40.0616 24.9163 39.2476 25.7503C38.468 26.5194 38.0907 27.6276 38.0926 28.71C38.0926 33.1371 38.0916 37.5653 38.0926 41.9925C38.0849 43.1101 37.7659 44.2624 37.0312 45.125C36.4924 45.769 35.7214 46.2036 34.8978 46.3537C33.7152 46.5724 32.3948 46.3708 31.4614 45.5693C30.4344 44.697 29.9931 43.3099 29.9891 41.9953C29.9853 36.609 29.9891 31.2236 29.9873 25.8382C29.9978 25.4169 29.7924 24.9918 29.4293 24.7691C28.8743 24.3966 28.0001 24.5762 27.7345 25.2191C25.2086 30.722 22.6788 36.223 20.1566 41.7278C19.6073 42.8733 19.0273 44.033 18.1561 44.9732C17.5217 45.6591 16.6762 46.1521 15.7543 46.3231C14.3059 46.6001 12.6886 46.4014 11.5106 45.4556C10.2667 44.4553 9.54924 42.9822 8.89386 41.5644C6.03924 35.3469 3.17507 29.1342 0.325221 22.9157C-0.131442 21.8696 -0.117112 20.6153 0.431266 19.6055Z" fill="#050038"/>
<path d="M166.794 18.4793C168.672 17.9683 170.665 17.9128 172.577 18.2663C174.699 18.6571 176.711 19.6516 178.284 21.1315C181.236 23.8714 182.624 27.9929 182.562 31.9595C182.511 32.8824 181.674 33.6935 180.743 33.6753C174.26 33.6773 167.777 33.6744 161.293 33.6763C161.441 35.5545 162.052 37.4137 163.124 38.9699C164.183 40.5129 165.739 41.709 167.508 42.3195C169.335 42.97 171.343 43.0063 173.227 42.5917C175.02 42.1933 176.68 41.2839 178.058 40.0763C178.374 39.8068 178.665 39.482 179.07 39.3426C179.77 39.075 180.615 39.3617 181.046 39.9664C181.519 40.5816 181.477 41.5303 180.942 42.095C179.619 43.4363 178.071 44.5808 176.329 45.3145C174.558 46.0683 172.623 46.3749 170.705 46.3845C168.687 46.3912 166.657 45.9728 164.835 45.0958C161.674 43.6169 159.215 40.7852 158.092 37.493C157.273 35.1781 157.075 32.6732 157.34 30.2417C157.725 26.8731 159.234 23.5877 161.754 21.2852C163.18 19.9687 164.919 18.9914 166.794 18.4793ZM166.802 22.1298C165.162 22.853 163.81 24.1437 162.894 25.6742C161.973 27.1817 161.469 28.9176 161.275 30.6659C161.742 30.6984 162.211 30.6755 162.68 30.6822C167.968 30.6841 173.257 30.6774 178.543 30.685C178.552 30.2265 178.458 29.7755 178.387 29.3246C178.057 27.5066 177.362 25.721 176.183 24.2822C175.134 22.9858 173.644 22.0543 172.019 21.6808C170.29 21.2901 168.428 21.3999 166.802 22.1298Z" fill="#050038"/>
<path d="M74.3991 18.1847C75.0679 17.9993 75.8513 18.1427 76.3499 18.6442C76.6404 18.9175 76.8467 19.269 76.9805 19.6426C79.2925 26.3282 81.5977 33.0167 83.9001 39.7061C84.2307 38.9103 84.4706 38.0782 84.7715 37.27C86.8016 31.3954 88.8365 25.5238 90.8772 19.6531C91.1036 18.9719 91.6147 18.328 92.3446 18.1685C93.0602 18.0195 93.8847 18.0997 94.4521 18.5994C94.8114 18.9041 95.0339 19.3321 95.1878 19.7706C97.3622 26.077 99.5279 32.3871 101.699 38.6953C101.827 39.0307 101.91 39.3842 102.071 39.7071C104.412 32.9661 106.762 26.2279 109.114 19.4916C109.293 19.0111 109.609 18.5592 110.075 18.3223C110.771 17.9669 111.669 18.0586 112.281 18.5439C112.851 18.9758 113.132 19.7515 112.955 20.4461C112.824 20.9571 112.627 21.4473 112.452 21.9431C109.92 28.9918 107.369 36.0347 104.834 43.0824C104.632 43.6183 104.46 44.1658 104.236 44.6931C103.933 45.3619 103.359 45.9542 102.622 46.1156C101.914 46.2542 101.11 46.1462 100.565 45.6389C99.9694 45.1183 99.7888 44.3195 99.5328 43.606C97.3794 37.3865 95.2145 31.1709 93.0563 24.9534C93.0296 24.8999 92.9752 24.7939 92.9484 24.7404C92.0943 27.0743 91.3033 29.4331 90.4702 31.7757C89.0496 35.8302 87.6309 39.8857 86.215 43.9431C86.0192 44.5049 85.8433 45.1077 85.402 45.5358C84.8183 46.1653 83.8505 46.3039 83.0566 46.0555C82.2827 45.8071 81.7496 45.101 81.4907 44.3578C78.747 36.6958 75.9859 29.0404 73.2441 21.3775C73.0922 20.9361 72.8973 20.4909 72.9212 20.0152C72.9164 19.1611 73.588 18.3929 74.3991 18.1847Z" fill="#050038"/>
<path d="M122.929 18.2025C125.105 18.0506 127.321 18.0372 129.453 18.5502C131.062 18.9333 132.616 19.6422 133.859 20.7466C135.343 22.0239 136.29 23.8382 136.711 25.7336C137.188 27.7103 137.034 29.7537 137.06 31.7668C137.06 35.9083 137.058 40.0497 137.061 44.1921C137.075 44.8083 136.801 45.4332 136.308 45.8105C135.721 46.2672 134.879 46.3083 134.211 46.0121C133.583 45.7332 133.169 45.0644 133.162 44.3823C133.153 43.4986 133.176 42.6148 133.152 41.7311C132.164 42.9349 131.011 44.0183 129.649 44.7855C127.793 45.8583 125.642 46.379 123.505 46.3847C121.344 46.4373 119.154 45.9491 117.262 44.8887C115.727 44.0231 114.413 42.7056 113.715 41.0719C112.992 39.4221 112.925 37.5429 113.284 35.7945C113.661 33.9889 114.738 32.3533 116.227 31.268C118.108 29.8818 120.44 29.2637 122.736 29.042C126.236 28.7573 129.785 29.1328 133.157 30.1121C133.216 28.3322 133.062 26.4482 132.094 24.9024C131.314 23.6041 130.007 22.6841 128.578 22.2264C127.406 21.8444 126.168 21.6962 124.939 21.7201C123.267 21.6944 121.573 21.8702 119.988 22.4271C119.474 22.5953 118.989 22.835 118.484 23.0204C117.805 23.2669 117.01 23.0232 116.549 22.4806C115.851 21.7096 116.022 20.2823 116.981 19.8028C118.841 18.9048 120.869 18.3554 122.929 18.2025ZM121.711 32.3801C120.364 32.7489 119.035 33.4252 118.181 34.5631C117.308 35.6904 117.048 37.2008 117.27 38.587C117.476 39.8749 118.251 41.0394 119.317 41.7808C120.987 42.9741 123.13 43.2999 125.138 43.1202C127.207 42.9378 129.265 42.1964 130.843 40.8217C132.225 39.6342 133.139 37.8887 133.205 36.0563C133.215 35.0828 133.208 34.1093 133.207 33.1367C131.501 32.6228 129.744 32.2836 127.973 32.1011C125.889 31.9091 123.751 31.8307 121.711 32.3801Z" fill="#050038"/>
<path d="M142.008 20.1103C141.992 19.0594 142.898 18.084 143.955 18.0621C145.048 17.9875 146.07 18.919 146.093 20.0157C146.111 21.5835 146.093 23.1531 146.1 24.7219C146.438 24.1419 146.717 23.5277 147.112 22.9811C148.781 20.5574 151.394 18.7442 154.308 18.2196C155.056 18.1117 155.889 17.9703 156.575 18.3811C157.781 19.0603 157.872 21.0217 156.759 21.8319C156.281 22.2246 155.647 22.258 155.064 22.3487C152.987 22.7127 150.985 23.6614 149.496 25.1728C148.256 26.388 147.382 27.9433 146.847 29.5875C146.271 31.3654 146.065 33.2475 146.1 35.1115C146.1 38.0731 146.099 41.0347 146.1 43.9963C146.107 44.5609 145.9 45.1351 145.495 45.5344C145.001 46.0541 144.211 46.249 143.526 46.056C142.855 45.8946 142.297 45.352 142.102 44.6927C141.971 44.3144 142.013 43.9103 142.009 43.5186C142.009 35.7161 142.01 27.9137 142.008 20.1103Z" fill="#050038"/>
</g>
</g>
<defs>
<clipPath id="clip0_1_74">
<rect width="287.953" height="61.7031" fill="white"/>
</clipPath>
<clipPath id="clip1_1_74">
<rect width="287.938" height="61.7009" fill="white" transform="translate(0 0.0012209)"/>
</clipPath>
</defs>
</svg>
