<svg width="1120" height="92" viewBox="0 0 1120 92" fill="none" xmlns="http://www.w3.org/2000/svg">
<g clip-path="url(#clip0_1_258)">
<path d="M121.056 34.9478C121.056 32.1827 119.872 29.7397 115.869 29.7397C113.815 29.7397 112.184 30.3251 111.299 30.8374L111.948 33.0557C112.762 32.5448 114.062 32.124 115.288 32.124C117.315 32.1212 117.647 33.2676 117.647 34.0046V34.1821C113.223 34.1749 110.426 35.7035 110.426 38.8163C110.426 40.7183 111.846 42.5016 114.328 42.5016C115.842 42.5016 117.121 41.8904 117.886 40.9258H117.96C117.96 40.9258 118.464 43.034 121.25 42.2281C121.109 41.3451 121.056 40.4149 121.056 39.2843V34.9478ZM117.755 37.8674C117.755 38.0907 117.737 38.3226 117.671 38.5215C117.416 39.3731 116.537 40.0857 115.444 40.0857C114.521 40.0857 113.797 39.5633 113.797 38.4684C113.797 36.794 115.646 36.3332 117.755 36.3447" fill="#050038"/>
<path d="M53.3281 25.9783C53.3281 25.9783 56.2177 37.7997 56.6771 39.7147C57.218 41.953 58.187 42.7803 60.9835 42.2293L62.7896 34.8988C63.2462 33.0826 63.5567 31.7803 63.8516 29.9297H63.9016C64.1063 31.7988 64.4011 33.0826 64.7747 34.9045C64.7747 34.9045 65.5117 38.2349 65.8939 39.9795C66.2659 41.7241 67.3135 42.8247 70.0571 42.2293L74.3564 25.9783H70.8857L69.4102 33.0082C69.0196 35.0448 68.6646 36.6491 68.3884 38.5154H68.3383C68.0893 36.6691 67.773 35.1307 67.3666 33.1356L65.838 25.9783H62.2172L60.5856 32.9524C60.1205 35.082 59.6854 36.7894 59.412 38.5969H59.3648C59.0829 36.901 58.7008 34.7413 58.2957 32.692C58.2957 32.692 57.3268 27.6986 56.9848 25.9783" fill="#050038"/>
<path d="M84.0278 34.9478C84.0278 32.1827 82.8413 29.7397 78.8383 29.7397C76.7903 29.7397 75.156 30.3251 74.2715 30.8374L74.9197 33.0557C75.7313 32.5448 77.0293 32.124 78.2601 32.124C80.2867 32.1212 80.6186 33.2676 80.6186 34.0046V34.1821C76.195 34.1749 73.3956 35.7035 73.3956 38.8163C73.3956 40.7183 74.821 42.5016 77.2912 42.5016C78.8197 42.5016 80.0877 41.8904 80.852 40.9258H80.9293C80.9293 40.9258 81.4359 43.034 84.2195 42.2281C84.0765 41.3451 84.0278 40.4149 84.0278 39.2843V34.9478ZM80.7246 37.8674C80.7246 38.0907 80.7061 38.3226 80.643 38.5215C80.3853 39.3731 79.5067 40.0857 78.4105 40.0857C77.493 40.0857 76.766 39.5633 76.766 38.4684C76.766 36.794 78.615 36.3332 80.7246 36.3447" fill="#050038"/>
<path d="M85.8289 25.9783V42.2236H89.1321V38.7788V25.9783H85.8289Z" fill="#050038"/>
<path d="M131.193 25.9783V37.9644C131.193 39.6189 131.504 40.7724 132.172 41.4793C132.759 42.099 133.719 42.5026 134.863 42.5026C135.844 42.5026 136.805 42.3137 137.258 42.1492L137.218 39.5687C136.879 39.6474 136.491 39.7147 135.959 39.7147C134.831 39.7147 134.459 39.0005 134.459 37.515V32.9266H137.336V29.8224H134.459V25.9783" fill="#050038"/>
<path d="M122.656 30.0215V42.228H126.071V35.9766C126.071 35.6403 126.092 35.3497 126.145 35.0806C126.4 33.7625 127.4 32.9282 128.842 32.9282C129.244 32.9282 129.517 32.9726 129.821 33.0198V29.8196C129.566 29.7739 129.393 29.7495 129.079 29.7495C127.801 29.7495 126.353 30.5609 125.742 32.3285H125.657V30.0215" fill="#050038"/>
<path d="M91.0506 30.0215V42.228H94.378V35.0635C94.378 34.7272 94.4152 34.3837 94.534 34.0731C94.8046 33.3475 95.4757 32.5074 96.5534 32.5074C97.893 32.5074 98.5256 33.638 98.5256 35.2695V42.228H101.845V34.9777C101.845 34.6613 101.889 34.2734 101.982 33.9929C102.248 33.17 102.975 32.5074 103.98 32.5074C105.334 32.5074 105.989 33.6137 105.989 35.5373V42.228H109.305V35.0306C109.305 31.2494 107.382 29.7495 105.198 29.7495C104.237 29.7495 103.473 29.9856 102.786 30.4093C102.205 30.7656 101.696 31.268 101.239 31.9249H101.189C100.664 30.6111 99.4301 29.7495 97.8186 29.7495C95.752 29.7495 94.8131 30.7928 94.2607 31.6745H94.2106V30.0215" fill="#050038"/>
<path d="M155.207 29.4739C155.86 29.4739 156.409 29.1333 156.481 28.6953L157.128 21.3676C157.128 20.6421 156.274 20.0481 155.207 20.0481C154.135 20.0481 153.287 20.6421 153.287 21.3676L153.939 28.6953C154.008 29.1333 154.555 29.4739 155.207 29.4739Z" fill="#050038"/>
<path d="M151.238 31.7669C151.561 31.1944 151.543 30.559 151.194 30.2755L145.154 26.0523C144.526 25.6859 143.585 26.1224 143.047 27.0469C142.51 27.97 142.619 29.0061 143.235 29.3653L149.921 32.4653C150.349 32.6256 150.909 32.3279 151.238 31.7612" fill="#050038"/>
<path d="M159.175 31.761C159.517 32.3278 160.077 32.6255 160.493 32.4738L167.18 29.3653C167.801 28.9989 167.894 27.9727 167.369 27.0496C166.832 26.125 165.886 25.6914 165.259 26.0506L159.218 30.2698C158.883 30.5575 158.859 31.1957 159.182 31.7668" fill="#050038"/>
<path d="M155.207 38.6267C155.86 38.6267 156.409 38.9674 156.481 39.4053L157.128 46.7329C157.128 47.4586 156.274 48.0467 155.207 48.0467C154.135 48.0467 153.287 47.4586 153.287 46.7329L153.939 39.4053C154.008 38.9674 154.555 38.6267 155.207 38.6267Z" fill="#050038"/>
<path d="M159.175 36.341C159.517 35.7728 160.077 35.4693 160.493 35.634L167.18 38.7368C167.801 39.0959 167.894 40.1307 167.369 41.0552C166.832 41.9726 165.886 42.4091 165.259 42.05L159.218 37.8251C158.883 37.5403 158.859 36.9048 159.182 36.341" fill="#050038"/>
<path d="M151.238 36.3349C151.561 36.9059 151.543 37.5399 151.194 37.8262L145.154 42.0438C144.526 42.4102 143.585 41.9722 143.047 41.0549C142.51 40.1318 142.619 39.0956 143.235 38.7364L149.921 35.6336C150.349 35.4704 150.909 35.7709 151.238 36.3349Z" fill="#050038"/>
<path d="M169.136 41.4063H169.219C169.332 41.4063 169.378 41.442 169.391 41.5323C169.415 41.6324 169.428 41.6998 169.452 41.7283H169.667C169.648 41.7068 169.624 41.6524 169.611 41.5266C169.587 41.4178 169.531 41.3562 169.452 41.3347V41.3147C169.561 41.2904 169.624 41.2174 169.624 41.1273C169.624 41.0457 169.587 40.987 169.55 40.9498C169.478 40.9154 169.409 40.8882 169.258 40.8882C169.123 40.8882 169.024 40.8997 168.946 40.9183V41.7283H169.136V41.4063ZM169.142 41.0371L169.239 41.0242C169.354 41.0242 169.415 41.0771 169.415 41.1515C169.415 41.2346 169.332 41.2732 169.226 41.2732H169.142V41.0371ZM169.263 40.4875C168.794 40.4875 168.422 40.8539 168.422 41.3032C168.422 41.7642 168.794 42.1305 169.263 42.1305C169.739 42.1305 170.099 41.7642 170.099 41.3032C170.099 40.8539 169.739 40.4875 169.263 40.4875ZM169.263 40.6521C169.624 40.6521 169.892 40.9441 169.892 41.3032C169.892 41.6654 169.624 41.9659 169.263 41.9602C168.903 41.9602 168.629 41.6654 168.629 41.3032C168.629 40.9441 168.903 40.6521 169.258 40.6521" fill="#050038"/>
</g>
<path fill-rule="evenodd" clip-rule="evenodd" d="M321.756 49.0964V37.0114H324.964V49.0964H321.756ZM336.37 39.9386C336.324 39.9253 335.013 39.5738 333.936 39.5738C332.688 39.5738 332.01 39.9791 332.01 40.554C332.01 41.2831 332.926 41.5378 333.438 41.6951L334.296 41.9605C336.317 42.584 337.237 43.9265 337.237 45.3847C337.237 48.3918 334.513 49.4032 332.13 49.4032C330.474 49.4032 328.923 49.1066 328.77 49.0758V46.3198C329.045 46.3869 330.349 46.765 331.71 46.765C333.259 46.765 333.971 46.3259 333.971 45.648C333.971 45.0409 333.354 44.6904 332.582 44.4562C332.395 44.3937 332.111 44.3071 331.917 44.2472C330.184 43.7148 328.738 42.7249 328.738 40.7446C328.738 38.505 330.466 37.0022 333.336 37.0022C334.852 37.0022 336.277 37.3593 336.369 37.3829V39.9381L336.37 39.9386ZM365.978 43.2019C365.978 46.6277 363.254 49.4022 359.46 49.4022C355.665 49.4022 352.944 46.6277 352.944 43.2009C352.944 39.7824 355.666 37.0048 359.46 37.0048C363.254 37.0048 365.978 39.7823 365.978 43.2019ZM359.46 40.0539C357.613 40.0539 356.241 41.4645 356.241 43.2019C356.241 44.9445 357.613 46.3526 359.46 46.3526C361.304 46.3526 362.68 44.9445 362.68 43.2019C362.68 41.4645 361.304 40.0539 359.46 40.0539ZM317.172 40.6483C317.046 40.5847 316.046 40.0098 314.556 40.0098C312.541 40.0098 311.145 41.3687 311.145 43.2025C311.145 44.9814 312.482 46.3976 314.558 46.3976C316.02 46.3976 317.038 45.8335 317.172 45.7628V48.9759C316.785 49.082 315.722 49.4022 314.332 49.4022C310.835 49.4022 307.764 47.0596 307.764 43.2009C307.764 39.6276 310.544 37.0048 314.333 37.0048C315.798 37.0048 316.879 37.3491 317.172 37.4341V40.6483ZM349.666 40.6483C349.539 40.5847 348.536 40.0098 347.049 40.0098C345.034 40.0098 343.639 41.3687 343.639 43.2025C343.639 44.9814 344.974 46.3976 347.048 46.3976C348.511 46.3976 349.529 45.8335 349.666 45.7628V48.9759C349.276 49.082 348.211 49.4022 346.83 49.4022C343.328 49.4022 340.254 47.0596 340.254 43.2009C340.254 39.6276 343.035 37.0048 346.83 37.0048C348.289 37.0048 349.372 37.3491 349.666 37.4341V40.6483Z" fill="#050038"/>
<path fill-rule="evenodd" clip-rule="evenodd" d="M372 20.6699C371.998 19.8414 371.307 19.1707 370.458 19.1717C369.607 19.1707 368.917 19.8414 368.915 20.6704V23.8128C368.901 24.3575 369.192 24.8668 369.675 25.1424C370.158 25.4191 370.756 25.4191 371.24 25.1424C371.723 24.8657 372.013 24.3564 371.999 23.8128V20.6699H372ZM363.522 16.5458C363.522 15.7203 362.834 15.0481 361.962 15.0481C361.113 15.0466 360.424 15.7162 360.422 16.5437V16.5448V23.8133C360.422 24.6408 361.11 25.3115 361.959 25.3115H361.962C362.833 25.3115 363.522 24.6418 363.522 23.8123V16.5432V16.5453V16.5458ZM355.029 10.902C355.028 10.074 354.338 9.40377 353.489 9.40479H353.488C352.639 9.40325 351.949 10.0729 351.947 10.9009V10.9014V26.7984C351.921 27.3497 352.209 27.8708 352.696 28.1526C353.184 28.435 353.792 28.4339 354.279 28.1501C354.765 27.8688 355.053 27.3497 355.028 26.7995V10.902H355.029ZM346.533 16.5458C346.532 15.7183 345.842 15.0481 344.993 15.0491C344.144 15.0476 343.454 15.7178 343.452 16.5453V16.5458V23.8128C343.454 24.6403 344.143 25.3105 344.993 25.309C345.842 25.3105 346.532 24.6403 346.533 23.8128V16.5437V16.5458ZM338.04 20.6699C338.038 19.8439 337.35 19.1758 336.503 19.1768C335.655 19.1748 334.965 19.8419 334.959 20.6689V23.8133C334.96 24.6408 335.65 25.311 336.499 25.3095C337.349 25.3115 338.039 24.6413 338.04 23.8138V23.8133V20.6704V20.6699ZM329.561 16.5458C329.559 15.7147 328.867 15.043 328.015 15.044C327.163 15.043 326.47 15.7147 326.469 16.5458V23.8128C326.47 24.6429 327.162 25.3146 328.014 25.3136H328.015C328.866 25.3151 329.558 24.6434 329.56 23.8133V23.8128V16.5437V16.5458H329.561ZM321.07 10.902C321.07 10.077 320.376 9.40684 319.525 9.40684C318.673 9.40684 317.979 10.0755 317.979 10.902V26.7984C317.98 27.629 318.672 28.3012 319.524 28.2997C320.377 28.3012 321.069 27.629 321.07 26.7984V10.902ZM312.581 16.5458C312.58 15.7147 311.888 15.043 311.035 15.044C310.183 15.043 309.491 15.7147 309.489 16.5458V23.8128C309.491 24.6429 310.182 25.3146 311.034 25.3136H311.034C311.887 25.3151 312.578 24.6434 312.58 23.8133V23.8128V16.5437V16.5458H312.581ZM304.091 20.6704C304.091 19.846 303.397 19.1763 302.546 19.1763C301.695 19.1763 301 19.846 301 20.6694V23.8123C301.002 24.6429 301.694 25.3151 302.546 25.3136C303.398 25.3151 304.09 24.6434 304.092 23.8128V20.6699L304.091 20.6704Z" fill="#050038"/>
<g clip-path="url(#clip1_1_258)">
<path d="M557.487 36.6874H563.959V34.5268H563.249C563.249 35.3533 562.644 35.9626 561.721 35.9626H560.724V32.737H561.799V32.0215H557.487V32.737H558.573V35.9626H557.487V36.6852V36.6874Z" fill="#050038"/>
<path d="M567.072 36.6898L569.589 36.6922L571.726 32.7393H572.798V32.0215H569.575V32.7393H570.508L568.949 35.6154L567.372 32.7393H568.503V32.0215H563.828L563.825 32.7393H564.897L567.072 36.6898Z" fill="#050038"/>
<path d="M544.599 32.0215H539.923L539.921 32.7393H540.991L543.168 36.6898L545.685 36.6922L547.822 32.7393H548.894V32.0215H545.671V32.7393H546.601L545.045 35.6154L543.468 32.7393H544.599V32.0215Z" fill="#050038"/>
<path d="M549.52 34.3594C549.52 35.7338 550.628 36.8271 552.847 36.8271C555.067 36.8271 556.163 35.7338 556.163 34.3594C556.163 33.0041 555.001 31.9226 552.833 31.9226C550.668 31.9226 549.518 33.0041 549.518 34.3594H549.52ZM553.99 34.3713C553.976 35.219 553.624 36.1022 552.812 36.0879C552.021 36.0738 551.674 35.2002 551.688 34.3312C551.705 33.4315 552.134 32.6475 552.876 32.6593C553.617 32.6735 554.007 33.4717 553.993 34.3713H553.99Z" fill="#050038"/>
<path d="M573.416 34.3594C573.416 35.7338 574.524 36.8271 576.743 36.8271C578.963 36.8271 580.059 35.7338 580.059 34.3594C580.059 33.0041 578.897 31.9226 576.732 31.9226C574.566 31.9226 573.416 33.0041 573.416 34.3594ZM576.772 32.6593C577.511 32.6735 577.903 33.4717 577.886 34.3713C577.87 35.219 577.52 36.1022 576.708 36.0879C575.917 36.0738 575.57 35.2002 575.584 34.3312C575.601 33.4315 576.03 32.6475 576.772 32.6593Z" fill="#050038"/>
<path d="M581.934 19.5162L579.225 22.2247C581.546 25.8068 582.897 30.0784 582.897 34.6665C582.897 47.3161 572.642 57.5713 559.992 57.5713C547.343 57.5713 537.087 47.3161 537.087 34.6665C537.087 22.0169 547.343 11.7617 559.992 11.7617C564.59 11.7617 568.871 13.1171 572.46 15.4501L575.168 12.7416C570.861 9.75454 565.631 8.00244 559.992 8.00244C545.267 8.00244 533.328 19.9389 533.328 34.6665C533.328 49.3917 545.265 61.3306 559.992 61.3306C574.717 61.3306 586.656 49.3941 586.656 34.6665C586.656 29.0395 584.911 23.8186 581.936 19.5162H581.934Z" fill="#050038"/>
<path d="M573.402 9.05249V9.80103C575.02 10.6771 576.541 11.7113 577.95 12.8731L574.151 16.6724C575.584 17.7964 576.878 19.0904 578.005 20.5214L581.799 16.7268C582.963 18.1388 583.998 19.6619 584.874 21.2558H585.603V9.05249H573.4H573.402Z" fill="#050038"/>
</g>
<path d="M826.912 40.4563C826.912 39.0515 828.053 37.9119 829.457 37.9119C830.861 37.9119 832 39.0516 832 40.4563C832 41.861 830.861 42.9999 829.457 42.9999C828.053 42.9999 826.912 41.861 826.912 40.4563Z" fill="#050038"/>
<path d="M745.765 33.7179C745.765 32.1063 745.454 30.9107 744.831 30.1317C744.207 29.3535 743.263 28.9648 741.993 28.9648H740.642V38.82H741.676C743.086 38.82 744.12 38.4018 744.778 37.5625C745.436 36.7247 745.765 35.4429 745.765 33.7179ZM750.583 33.55C750.583 36.4861 749.794 38.7485 748.216 40.3366C746.637 41.9254 744.418 42.7198 741.558 42.7198H736V25.1261H741.946C744.704 25.1261 746.833 25.8483 748.333 27.2921C749.833 28.7366 750.583 30.8216 750.583 33.55ZM765.978 42.7196H770.401V25.0522H765.978V42.7196ZM776.614 36.1296C776.614 37.256 776.761 38.1152 777.055 38.7057C777.349 39.2969 777.843 39.5921 778.536 39.5921C779.222 39.5921 779.707 39.2969 779.99 38.7057C780.273 38.1152 780.413 37.2561 780.413 36.1296C780.413 35.009 780.271 34.1639 779.984 33.5933C779.697 33.0212 779.207 32.7348 778.513 32.7348C777.834 32.7348 777.349 33.0197 777.055 33.5866C776.761 34.1543 776.614 35.0017 776.614 36.1296ZM784.915 36.1296C784.915 38.2757 784.352 39.9499 783.224 41.1499C782.097 42.3507 780.519 42.9515 778.491 42.9515C776.546 42.9515 774.998 42.3375 773.848 41.1094C772.698 39.8814 772.123 38.2219 772.123 36.1296C772.123 33.9901 772.686 32.3277 773.814 31.1423C774.942 29.957 776.523 29.3643 778.56 29.3643C779.818 29.3643 780.931 29.6389 781.895 30.1874C782.861 30.736 783.606 31.5215 784.129 32.5449C784.653 33.5667 784.915 34.7624 784.915 36.1296ZM786.671 42.7197H791.094V35.9581V29.5963H786.671V42.7197ZM786.671 28.009H791.094V25.0515H786.671V28.009ZM800.056 39.3724C800.653 39.3724 801.364 39.2207 802.194 38.9196V42.2216C801.597 42.4837 801.03 42.6715 800.492 42.7827C799.953 42.8953 799.32 42.9513 798.597 42.9513C797.112 42.9513 796.041 42.578 795.384 41.8329C794.729 41.0878 794.401 39.9437 794.401 38.3999V32.9901H792.852V29.5975H794.401V26.2462L798.858 25.4709V29.5975H801.68V32.9901H798.858V38.098C798.858 38.9476 799.258 39.3724 800.056 39.3724ZM810.293 39.3724C810.89 39.3724 811.601 39.2207 812.431 38.9196V42.2216C811.835 42.4837 811.267 42.6715 810.729 42.7827C810.189 42.8953 809.559 42.9513 808.834 42.9513C807.349 42.9513 806.278 42.578 805.622 41.8329C804.966 41.0878 804.638 39.9437 804.638 38.3999V32.9901H803.088V29.5975H804.638V26.1954L809.094 25.4709V29.5975H811.918V32.9901H809.094V38.098C809.094 38.9476 809.494 39.3724 810.293 39.3724ZM818.012 34.5309C818.072 33.8123 818.278 33.2859 818.628 32.9494C818.98 32.6137 819.414 32.4459 819.934 32.4459C820.501 32.4459 820.952 32.6343 821.286 33.0142C821.622 33.3919 821.797 33.8977 821.812 34.5309H818.012ZM824.249 30.9115C823.198 29.8808 821.706 29.3647 819.777 29.3647C817.748 29.3647 816.188 29.9574 815.093 31.1427C814 32.3281 813.453 34.0288 813.453 36.2448C813.453 38.3909 814.044 40.0459 815.224 41.2077C816.404 42.3695 818.061 42.9511 820.196 42.9511C821.22 42.9511 822.102 42.8812 822.842 42.7421C823.576 42.6044 824.288 42.3555 824.977 41.9963L824.298 39.0388C823.796 39.2435 823.319 39.4011 822.869 39.5049C822.218 39.6558 821.504 39.7316 820.726 39.7316C819.874 39.7316 819.201 39.5233 818.707 39.1066C818.214 38.6891 817.951 38.1134 817.921 37.3801H825.827V35.365C825.827 33.4265 825.301 31.9415 824.249 30.9115ZM756.453 34.5309C756.514 33.8123 756.719 33.2859 757.069 32.9494C757.42 32.6137 757.856 32.4459 758.376 32.4459C758.941 32.4459 759.392 32.6343 759.727 33.0142C760.064 33.3919 760.238 33.8977 760.254 34.5309H756.453ZM762.691 30.9115C761.639 29.8808 760.148 29.3647 758.218 29.3647C756.189 29.3647 754.629 29.9574 753.535 31.1427C752.442 32.3281 751.894 34.0288 751.894 36.2448C751.894 38.3909 752.485 40.0459 753.666 41.2077C754.845 42.3695 756.503 42.9511 758.637 42.9511C759.662 42.9511 760.544 42.8812 761.283 42.7421C762.018 42.6044 762.729 42.3555 763.419 41.9963L762.739 39.0388C762.238 39.2435 761.76 39.4011 761.311 39.5049C760.658 39.6558 759.945 39.7316 759.167 39.7316C758.316 39.7316 757.642 39.5233 757.149 39.1066C756.655 38.6891 756.393 38.1134 756.362 37.3801H764.268V35.365C764.268 33.4265 763.742 31.9415 762.691 30.9115" fill="#050038"/>
<g clip-path="url(#clip2_1_258)">
<path d="M991.577 32.9162C991.577 29.2245 991.583 25.5299 991.569 21.841C991.569 21.3278 991.908 21.0086 992.421 21.0086C993.37 21.0029 994.325 21 995.275 21.0086C995.813 21.0143 996.127 21.3421 996.121 21.8467C996.107 25.1137 996.113 28.3863 996.113 31.6533V31.8329C996.118 32.1949 996.278 32.4601 996.612 32.6026C996.934 32.7394 997.236 32.6682 997.498 32.3888C998.456 31.3625 999.411 30.3334 1000.36 29.3043C1000.95 28.6714 1001.54 28.0471 1002.12 27.4114C1002.34 27.1719 1002.59 27.0579 1002.92 27.0636C1004.11 27.0721 1005.31 27.0721 1006.51 27.0636C1006.86 27.0636 1007.14 27.1719 1007.29 27.4997C1007.44 27.839 1007.37 28.1412 1007.12 28.4177C1005.32 30.4018 1003.54 32.3888 1001.75 34.3729C1001.6 34.5326 1001.46 34.6979 1001.35 34.8804C1001.15 35.2025 1001.15 35.5189 1001.34 35.8468C1001.54 36.2003 1001.82 36.4853 1002.1 36.7733C1004.27 39.0026 1006.44 41.2319 1008.62 43.4555C1008.88 43.7263 1008.96 44.0228 1008.83 44.3706C1008.7 44.6955 1008.45 44.8438 1008.05 44.8438C1006.72 44.8438 1005.39 44.8381 1004.06 44.8438C1003.76 44.8438 1003.53 44.7497 1003.31 44.5216C1001.38 42.4948 999.439 40.4793 997.501 38.4609C997.224 38.1701 996.917 38.096 996.597 38.23C996.275 38.3583 996.107 38.632 996.107 39.0282V43.9971C996.107 44.533 995.836 44.8096 995.306 44.8124H992.387C991.802 44.8124 991.574 44.5815 991.574 44.0057L991.577 32.9162ZM1009.69 29.2016C1009.69 26.7585 1009.7 24.3126 1009.68 21.8695C1009.68 21.3164 1010 21 1010.56 21C1011.48 21.0057 1012.4 21 1013.32 21C1013.86 21 1014.17 21.3022 1014.17 21.8381C1014.18 23.2635 1014.18 24.6917 1014.18 26.1171C1014.18 26.7329 1014.49 27.0522 1015.1 27.0522H1018.94C1019.34 27.0522 1019.61 27.2717 1019.69 27.6679C1019.73 27.8589 1019.71 28.0499 1019.72 28.2466V30.6099C1019.72 31.2285 1019.44 31.5051 1018.82 31.5051C1017.6 31.5051 1016.37 31.4994 1015.15 31.4994C1014.52 31.4994 1014.2 31.8158 1014.19 32.4344C1014.19 33.6916 1014.17 34.9431 1014.18 36.2003C1014.21 38.116 1015.68 39.8806 1017.58 40.331C1018.15 40.465 1018.72 40.4878 1019.29 40.408C1019.75 40.3424 1020.09 40.5904 1020.14 41.058C1020.26 42.0529 1020.36 43.0507 1020.47 44.0456C1020.51 44.4247 1020.23 44.7725 1019.84 44.8352C1018.79 45.0148 1017.74 44.9521 1016.7 44.7183C1013.01 43.8916 1010.29 40.9382 1009.76 37.1952C1009.71 36.8246 1009.69 36.454 1009.69 36.0862V29.2016ZM1042.49 40.8755C1042.49 40.5363 1042.24 40.2997 1041.9 40.2826C1041.67 40.274 1041.44 40.2655 1041.21 40.2455C1040.03 40.1571 1039.42 39.6041 1039.2 38.441C1039.04 37.5544 1039.05 36.6535 1039.04 35.7527C1039.03 33.1671 1039.03 30.5814 1039.03 27.9958C1039.03 27.9188 1039.03 27.8475 1039.03 27.7734C1039 27.3544 1038.69 27.055 1038.27 27.055C1037.27 27.0493 1036.28 27.0493 1035.28 27.055C1034.83 27.055 1034.51 27.3772 1034.49 27.8219C1034.49 27.9302 1034.49 28.0414 1034.49 28.1697C1034.41 28.1241 1034.34 28.0927 1034.28 28.0613C1032.48 27.1177 1030.58 26.8127 1028.58 27.1462C1023.48 28.0015 1020.16 33.1043 1021.43 38.1103C1023.04 44.4618 1030.65 46.9904 1035.74 42.8568C1035.86 42.7599 1035.91 42.7627 1036.01 42.8939C1036.53 43.6436 1037.22 44.1853 1038.08 44.5131C1039.03 44.8751 1040.02 44.9236 1041.03 44.8523C1041.38 44.8267 1041.74 44.7754 1042.06 44.6129C1042.29 44.496 1042.48 44.3221 1042.49 44.057C1042.51 42.9965 1042.5 41.936 1042.49 40.8755ZM1030.1 40.4165C1027.62 40.408 1025.65 38.3925 1025.66 35.8667C1025.67 33.4778 1027.69 31.4937 1030.12 31.4994C1032.61 31.5051 1034.58 33.5063 1034.58 36.0378C1034.57 38.4239 1032.53 40.4194 1030.1 40.4165ZM980.451 27.018C975.718 27.0265 971.608 30.6812 971.502 35.7584C971.394 41.0095 975.553 44.7668 980.197 44.8837C985.163 45.0091 989.277 41.0893 989.362 36.1376C989.445 31.0974 985.497 27.075 980.451 27.018ZM980.419 40.4165C977.976 40.4165 975.972 38.4096 975.966 35.958C975.961 33.5034 977.962 31.4994 980.428 31.4908C982.888 31.4851 984.881 33.4835 984.881 35.9523C984.881 38.421 982.888 40.4165 980.419 40.4165Z" fill="#050038"/>
</g>
<defs>
<clipPath id="clip0_1_258">
<rect width="117.328" height="63.9972" fill="white" transform="translate(53.3281 0.00146484)"/>
</clipPath>
<clipPath id="clip1_1_258">
<rect width="53.3281" height="63.9938" fill="white" transform="translate(533.328 0.00317383)"/>
</clipPath>
<clipPath id="clip2_1_258">
<rect width="73" height="64" fill="white" transform="translate(971.5)"/>
</clipPath>
</defs>
</svg>
